<svg width="133" height="29" viewBox="0 0 133 29" fill="none" xmlns="http://www.w3.org/2000/svg">
<path d="M21.7005 0H16.248C16.248 0.631767 16.2473 13.8077 16.2473 14.2522H21.7005V0ZM5.6421 14.2522H0.186523V28.505H5.6421V14.2522ZM13.6722 28.505H8.21599V0H13.6716C13.6716 0.622159 13.6722 27.7549 13.6722 28.505" fill="#333333"/>
<path d="M47.9139 5.54657L44.1192 15.909L39.6889 5.54657H37.8715L43.1556 18.0949L41.5046 23.0237H43.3401L49.6996 5.54657H47.9139ZM130.738 5.54657L126.944 15.909L122.513 5.54657H120.696L125.98 18.0949L124.329 23.0237H126.165L132.524 5.54657H130.738ZM33.2301 10.8557C30.4444 10.3921 29.9581 9.89007 29.9581 8.86852C29.9581 7.77805 31.0862 7.04518 32.7118 7.04518C34.4113 7.04518 35.3639 7.66936 35.6374 9.00856L35.6518 9.0793H37.481L37.4404 8.83546C37.0715 6.61374 35.4004 5.39031 32.7351 5.39031C30.0868 5.39031 28.1649 6.8532 28.1649 8.86849C28.1649 11.509 30.3826 12.1013 32.8492 12.5167C35.1765 12.922 35.8901 13.2496 35.8901 14.637C35.8901 15.9126 34.749 16.7038 32.9708 16.7038C30.5455 16.7038 29.7981 15.4155 29.6083 14.2851H27.7427C27.9691 16.7982 29.9714 18.3591 32.9708 18.3591C35.7733 18.3591 37.7303 16.8095 37.7303 14.5928C37.7303 11.8556 35.6025 11.2633 33.2302 10.8556L33.2301 10.8557ZM94.7696 5.36857C93.1421 5.36857 91.8408 6.04433 90.9813 6.92112V5.54636H89.2308V18.1589H90.9813V10.6221C90.9813 8.84473 92.2448 7.04565 94.6596 7.04565C95.1248 7.04565 95.5307 7.10561 95.8832 7.22141V5.46631C95.5355 5.40295 95.1653 5.36857 94.7696 5.36857ZM69.0593 16.6602C66.6096 16.6602 64.8314 14.6803 64.8314 11.9523V11.7749C64.8314 9.03431 66.6188 7.04515 69.0814 7.04515C70.7899 7.04515 72.1402 7.97653 72.8081 9.47194H74.6864C73.8823 7.01329 71.7686 5.39031 69.0814 5.39031C65.6482 5.39031 63.0587 8.13493 63.0587 11.7749V11.9523C63.0587 15.5323 65.6847 18.3364 69.0371 18.3364C71.941 18.3364 74.2374 16.3516 74.8662 13.519H73.0569C72.5279 15.4266 71.0307 16.6602 69.0593 16.6602ZM115.574 5.36807C113.946 5.36807 112.645 6.044 111.785 6.92112V5.54636H110.035V18.1584H111.785V10.6221C111.785 8.84423 113.049 7.04515 115.464 7.04515C117.493 7.04515 118.438 8.13174 118.438 10.4665V18.1584H120.189V10.4879C120.189 7.18704 118.55 5.36807 115.574 5.36807ZM106.296 11.9301V11.753C106.296 8.98089 104.575 7.04515 102.112 7.04515C99.6492 7.04515 97.8616 9.03431 97.8616 11.7749V11.9523C97.8616 14.6809 99.6398 16.6602 102.09 16.6602C104.566 16.6602 106.296 14.7153 106.296 11.9301ZM108.069 11.753V11.9301C108.069 15.5822 105.489 18.3364 102.068 18.3364C98.7151 18.3364 96.0891 15.5323 96.0891 11.9523V11.7749C96.0891 8.13493 98.6785 5.39031 102.112 5.39031C105.564 5.39031 108.069 8.06669 108.069 11.753ZM82.0613 5.36807C80.4335 5.36807 79.1319 6.044 78.2727 6.92112V0H76.5224V18.1584H78.2727V10.6221C78.2727 8.84423 79.5362 7.04515 81.9514 7.04515C83.9809 7.04515 84.9256 8.13174 84.9256 10.4665V18.1584H86.6758V10.4879C86.6758 7.18704 85.0373 5.36807 82.0613 5.36807ZM61.3395 10.4879V18.1584H59.5887V10.4665C59.5887 8.13174 58.6436 7.04515 56.6144 7.04515C54.2 7.04515 52.9362 8.84423 52.9362 10.6221V18.1584H51.1854V5.54636H52.9362V6.92112C53.7954 6.044 55.0969 5.36807 56.7246 5.36807C59.7002 5.36807 61.3395 7.18704 61.3395 10.4879Z" fill="#333333"/>
<path d="M105.646 26.9677C105.515 27.4763 105.193 27.6956 104.544 27.6956C103.436 27.6956 103.221 26.7947 103.221 25.7817C103.221 24.7693 103.436 23.8687 104.544 23.8687C105.149 23.8687 105.468 24.0614 105.615 24.4992H106.636C106.473 23.5587 105.844 22.9609 104.544 22.9609C102.882 22.9609 102.231 24.0851 102.231 25.7817C102.231 27.479 102.882 28.6032 104.544 28.6032C105.888 28.6032 106.513 27.9638 106.65 26.9677H105.646ZM117.922 27.5978H120.484V28.5056H116.952V23.0584H117.922V27.5978ZM113.198 24.2245L112.499 26.32H113.897L113.198 24.2245ZM114.202 27.2065H112.194L111.73 28.5056H110.684L112.769 22.9609H113.627L115.712 28.5056H114.666L114.202 27.2065ZM109.247 28.5056H108.277V23.0582H109.247V28.5056ZM98.058 25.6983L97.5249 24.8601L97.5386 26.1665V28.5056H96.5693V23.0584H97.4626L99.3252 25.8662L99.8582 26.7037L99.8447 25.398V23.0584H100.814V28.5056H99.9205L98.058 25.6983ZM92.8149 24.2245L92.1156 26.32H93.5142L92.8149 24.2245ZM93.819 27.2065H91.8107L91.3469 28.5056H90.3012L92.3857 22.9609H93.244L95.3283 28.5056H94.2828L93.819 27.2065ZM86.2545 25.6983L85.7213 24.8601L85.735 26.1665V28.5056H84.7657V23.0584H85.659L87.5218 25.8662L88.0546 26.7037L88.0412 25.398V23.0584H89.0102V28.5056H88.1171L86.2545 25.6983ZM82.8074 28.5056H81.8379V23.0582H82.8074V28.5056ZM77.4919 28.5056H76.5222V23.0584H80.2133V23.9663H77.4919V25.4668H79.8808V26.3742H77.4919V28.5056Z" fill="#333333"/>
</svg>
