<svg width="93" height="17" viewBox="0 0 93 17" fill="none" xmlns="http://www.w3.org/2000/svg">
<path d="M27.2682 7.22546C29.4443 6.34795 30.251 5.16237 30.251 3.69675C30.251 1.1389 28.0092 0 24.3322 0H17.7569C18.1697 0.625459 18.5636 1.2976 18.5636 2.3058V7.38416C16.6314 7.7669 14.8961 8.09363 13.264 8.48571C11.8007 4.47157 10.1686 0 10.1686 0H6.07899C6.14465 0.560113 6.08837 1.15757 5.78822 1.96973L1.21083 14.6656C1.21083 14.6656 0.910679 15.5618 0.282227 16.3646H3.63084C3.56519 15.9259 3.6496 15.3471 3.76216 14.9924C4.09984 13.9935 5.00969 13.3307 5.97582 12.9013C7.23272 12.3318 9.41823 11.6504 10.45 11.3423L11.5381 14.4416C11.5381 14.4416 11.9789 15.6085 11.7444 16.3646H16.4719C15.759 15.4031 15.5152 14.6843 15.5152 14.6656C15.4026 14.3669 14.7835 12.6492 13.9862 10.4834C15.4307 10.138 16.9409 9.84865 18.5636 9.53126V14.0402C18.5636 14.9083 18.2072 15.6738 17.7569 16.3553H24.004C25.0264 16.3553 25.9362 16.2993 26.6209 16.1779C29.3036 15.7112 31.2265 14.3482 31.2265 11.445C31.2358 9.22319 29.7351 7.89759 27.2682 7.22546ZM6.14465 10.6048C5.7507 10.7915 5.24418 11.0996 4.95341 11.389C5.85388 8.7751 7.09202 5.18105 7.69233 3.48204L9.75591 9.34455C8.71474 9.64328 7.11078 10.1474 6.14465 10.6048ZM22.2124 2.04441C22.8596 2.00707 23.0941 2.00707 23.5162 2.00707C25.5329 2.00707 26.4709 2.84724 26.4709 4.03281C26.4709 5.16237 25.7205 5.86252 24.4729 6.23593C23.9477 6.39462 23.0753 6.57199 22.2124 6.72136V2.04441ZM23.7319 14.3296H22.2218V8.87779C22.7846 8.7471 23.685 8.5884 24.276 8.52305C26.0957 8.94314 27.437 9.68995 27.437 11.5383C27.4276 13.6948 25.8424 14.3296 23.7319 14.3296Z" fill="#333333"/>
<path d="M32.9243 16.3646C33.731 15.1603 33.731 14.0681 33.731 14.0494V2.32441C33.731 2.30574 33.731 1.22286 32.9243 0.00927734H38.2052C37.3985 1.22286 37.3985 2.30574 37.3985 2.32441V14.0494C37.3985 14.0681 37.3985 15.1603 38.2052 16.3646H32.9243Z" fill="#333333"/>
<path d="M92.0362 4.84521H88.5C88.8002 5.33065 88.6782 6.10547 88.3687 6.88963L86.08 12.9669L83.7069 6.88963C83.388 6.10547 83.2754 5.33065 83.5756 4.84521H79.0076C79.636 5.50802 80.03 6.35752 80.2551 6.88963L84.1853 16.3649H87.2431C87.2431 16.3649 87.3181 15.59 87.6652 14.7219L90.8262 6.88963C91.042 6.34818 91.4922 5.41466 92.0362 4.84521Z" fill="#333333"/>
<path d="M79.4766 10.9408C79.7017 8.53233 79.0358 4.34082 73.6892 4.34082C69.3276 4.34082 67.7236 7.36543 67.7236 10.3154C67.7236 14.0681 69.7778 16.6446 74.6929 16.6446C76.6908 16.6446 78.3041 16.0565 79.2609 15.4777L78.276 13.312C77.3474 13.7787 76.2124 14.1895 74.9461 14.1895C72.7512 14.1895 71.4005 13.424 71.1098 11.2582H75.856C77.6006 11.2676 79.017 11.1649 79.4766 10.9408ZM71.1191 9.27915C71.3349 7.42144 72.1697 6.47858 73.6892 6.47858C75.2651 6.47858 76.0436 7.69216 76.1092 9.26048C76.1092 9.26048 75.4151 9.27915 74.5147 9.27915H71.1191Z" fill="#333333"/>
<path d="M47.238 16.3644H51.9186C51.2057 15.3002 51.2057 14.3293 51.2057 14.32V8.16805C51.2057 5.96493 50.0145 4.61133 47.5007 4.61133C45.8967 4.61133 44.5742 5.33014 43.5987 6.20765V4.84471H39.6216C40.3345 5.91826 40.3345 6.87979 40.3345 6.88912V14.3106C40.3345 14.3293 40.3345 15.2908 39.6216 16.355H44.3115C43.5987 15.2908 43.5987 14.32 43.5987 14.3106V8.16805C44.199 7.55192 45.0525 7.10383 45.9905 7.10383C47.4256 7.10383 47.9509 7.89732 47.9509 9.12957V14.3106C47.9509 14.3293 47.9509 15.2908 47.238 16.3644Z" fill="#333333"/>
<path d="M59.3663 8.64435C61.6737 8.64435 62.94 9.76458 62.94 11.5756C62.94 13.1999 61.9645 14.3855 59.31 14.3855H57.7248V8.64435H59.3663ZM59.0192 1.98834C61.0359 1.98834 61.9739 2.7725 61.9739 4.24747C61.9739 5.71309 61.1297 6.5906 59.1881 6.5906C58.8129 6.5906 58.1281 6.59994 57.7248 6.5906V1.98834H59.0192ZM59.4413 16.3646C60.4637 16.3646 61.4111 16.3086 62.0958 16.1872C64.7316 15.7298 66.6826 14.3855 66.6826 11.4916C66.6826 9.16712 65.1912 7.96288 62.8462 7.29075C64.9473 6.49725 65.6508 5.35836 65.6508 3.87406C65.6508 1.31621 63.5591 0.00927734 59.7884 0.00927734H53.4851C53.926 0.672078 54.076 1.6336 54.076 2.32441V14.0494C54.076 14.8149 53.9353 15.6178 53.4851 16.3646H59.4413Z" fill="#333333"/>
</svg>
