<svg width="111" height="33" viewBox="0 0 111 33" fill="none" xmlns="http://www.w3.org/2000/svg">
<path d="M0 32.5393V0H22.6849V32.5393H0ZM19.4023 29.2614V3.2777H3.26657V29.2614H19.4023Z" fill="#333333"/>
<path d="M37.7575 14.5948H36.354C34.5146 11.9916 32.6829 9.40435 30.8593 6.47591V14.5948H29.2737V3.26953H30.677C32.5166 5.85679 34.3481 8.4282 36.1559 11.3409V3.26953H37.7417V14.5948H37.7575Z" fill="#333333"/>
<path d="M41.4367 10.1187C41.8886 8.63462 42.3405 7.25362 42.7449 5.50774C43.1968 7.25373 43.6013 8.63462 44.0215 10.1187H41.4367ZM42.1819 3.2775L38.2649 14.5948H39.946L40.9291 11.5076H44.3386L45.2265 14.5948H47.3912L43.8152 3.26953H42.2296L42.1819 3.2775Z" fill="#333333"/>
<path d="M49.2308 14.5951V4.79371H46.2573V3.27783H54.1231V4.79371H51.1498V14.5951H49.2072H49.2308Z" fill="#333333"/>
<path d="M54.7808 14.5948V3.26953H56.7074V14.5948H54.7808Z" fill="#333333"/>
<path d="M62.6792 13.1507C60.6573 13.1507 59.9436 10.9206 59.9436 8.75389C59.9436 6.58721 60.7365 4.67457 62.6792 4.67457C64.6219 4.67457 65.4068 6.66672 65.4068 8.75389C65.4068 10.8413 64.7011 13.1507 62.6792 13.1507ZM62.6792 14.738C65.6366 14.738 67.4761 12.1032 67.4761 8.72222C67.4761 5.54773 65.4384 3.02393 62.6792 3.02393C59.92 3.02393 57.8821 5.54773 57.8821 8.72222C57.8821 12.1506 59.7218 14.7936 62.6792 14.7936V14.738Z" fill="#333333"/>
<path d="M77.1168 14.5948H75.7133C73.8739 11.9916 72.0421 9.40435 70.2185 6.47591V14.5948H68.6328V3.26953H70.0362C71.8757 5.85679 73.7074 8.4282 75.515 11.3409V3.26953H77.1008V14.5948H77.1168Z" fill="#333333"/>
<path d="M80.8194 10.119C81.2715 8.63494 81.7234 7.25394 82.1277 5.50807C82.5796 7.25406 82.9839 8.63494 83.4044 10.119H80.7877H80.8194ZM81.5648 3.27783L77.6558 14.6031H79.3367L80.3199 11.5158H83.7294L84.6174 14.6031H86.7821L83.1743 3.27783H81.5885H81.5648Z" fill="#333333"/>
<path d="M87.3452 3.26953H89.2721V13.071H93.1018V14.5948H87.3452V3.26953Z" fill="#333333"/>
<path d="M36.5603 24.0721V28.7465C35.5401 29.1777 34.4485 29.4145 33.3413 29.4449C30.011 29.4449 27.9097 26.8577 27.9097 23.5245C27.9097 20.437 30.011 17.731 33.4046 17.731C34.3865 17.7364 35.3433 18.0409 36.1481 18.6039L35.5217 19.9451C34.8952 19.5702 34.1821 19.3652 33.4524 19.35C31.3828 19.35 29.9793 20.985 29.9793 23.5563C29.9793 26.1276 31.565 27.8261 33.262 27.8261C33.7299 27.8463 34.1955 27.7508 34.6177 27.5482V24.0721H36.5603Z" fill="#333333"/>
<path d="M43.4983 19.4436H40.2633V22.5469H43.4348V24.0707H40.2633V27.7294H44.0772V29.2531H38.3208V17.9121H43.4906V19.4358L43.4983 19.4436Z" fill="#333333"/>
<path d="M49.4761 27.825C47.4542 27.825 46.7485 25.5948 46.7485 23.4283C46.7485 21.2616 47.5414 19.3489 49.4761 19.3489C51.4108 19.3489 52.2117 21.3409 52.2117 23.4283C52.2116 25.5155 51.498 27.825 49.4761 27.825ZM49.4761 29.4123C52.4335 29.4123 54.2731 26.7773 54.2731 23.3965C54.2731 20.222 52.2354 17.6982 49.4761 17.6982C46.717 17.6982 44.6792 20.222 44.6792 23.3965C44.6792 26.8091 46.5186 29.444 49.4761 29.444V29.4123Z" fill="#333333"/>
<path d="M63.5909 24.0711V28.7455C62.5706 29.1767 61.4788 29.4135 60.3716 29.4439C57.0415 29.4439 54.9402 26.8567 54.9402 23.5235C54.9402 20.4361 57.0415 17.73 60.4351 17.73C61.4169 17.7354 62.3737 18.0399 63.1785 18.6029L62.5522 19.9442C61.9256 19.5692 61.2123 19.3642 60.4826 19.3491C58.4132 19.3491 57.0097 20.984 57.0097 23.5553C57.0097 26.1266 58.5955 27.8251 60.2923 27.8251C60.7602 27.8453 61.2258 27.7498 61.6482 27.5472V24.0711H63.5909Z" fill="#333333"/>
<path d="M67.3095 19.4439H68.1659C69.0679 19.3546 69.8715 20.014 69.9609 20.9171C69.9726 21.0343 69.9716 21.1525 69.958 21.2694C70.1007 22.3604 69.3327 23.3605 68.2428 23.5032C68.2015 23.5085 68.16 23.5127 68.1183 23.5155L67.3254 23.5631V19.4361L67.3095 19.4439ZM72.2256 29.2457L69.9816 24.5552C71.2013 23.8775 71.9528 22.5864 71.9402 21.1901C71.9402 18.9917 70.6001 17.9204 68.4355 17.9204H65.4146V29.2457H67.3572V24.9757H68.2294L70.0529 29.2457H72.2653H72.2256Z" fill="#333333"/>
<path d="M75.421 24.7692C75.8729 23.2851 76.3249 21.9041 76.7294 20.158C77.1813 21.9041 77.5855 23.277 78.0057 24.7692H75.3894H75.421ZM76.1662 17.9121L72.2573 29.2373H73.9463L74.9295 26.1498H78.3387L79.2268 29.2373H81.3914L77.7838 17.9121H76.1981H76.1662Z" fill="#333333"/>
<path d="M85.0464 17.9121H82.0254V29.2373H83.968V24.9753H84.8404C86.8809 24.9891 88.5462 23.3444 88.5599 21.3019C88.5603 21.2644 88.5599 21.227 88.559 21.1897C88.5272 18.9912 87.1871 17.9121 85.0464 17.9121ZM84.7688 23.5071L83.9759 23.5547V19.4358H84.8481C85.751 19.3553 86.5482 20.0226 86.6287 20.9263C86.6387 21.0379 86.637 21.1501 86.6242 21.2611C86.7702 22.3561 86.0019 23.362 84.9079 23.5081C84.854 23.5153 84.7996 23.5203 84.7451 23.5231L84.7688 23.5071Z" fill="#333333"/>
<path d="M97.5181 29.2454H95.5755V23.793H91.5475V29.2454H89.6208V17.9121H91.5475V22.2611H95.5755V17.9437H97.5181V29.2373V29.2454Z" fill="#333333"/>
<path d="M99.3743 29.2454V17.9121H101.301V29.2373H99.3743V29.2454Z" fill="#333333"/>
<path d="M110.024 19.9757C109.426 19.5973 108.74 19.3813 108.033 19.3489C106.059 19.3489 104.624 20.9835 104.624 23.5549C104.624 26.1262 106.21 27.8248 108.081 27.8248C108.769 27.823 109.442 27.6279 110.024 27.2613L110.555 28.6661C109.793 29.1609 108.91 29.4354 108.002 29.4597C104.672 29.4597 102.571 26.8724 102.571 23.539C102.571 20.4519 104.656 17.7456 108.034 17.7456C108.967 17.7746 109.872 18.0783 110.634 18.6187L110.024 19.9757Z" fill="#333333"/>
</svg>
