<svg width="56" height="56" viewBox="0 0 56 56" fill="none" xmlns="http://www.w3.org/2000/svg">
<path d="M27.9983 55.4401C43.1564 55.4401 55.4406 43.1559 55.4406 28.0023C55.4406 12.8487 43.1564 0.560059 27.9983 0.560059C12.8447 0.560059 0.560547 12.8487 0.560547 28.0023C0.560547 43.1559 12.8447 55.4401 27.9983 55.4401Z" fill="white"/>
<path d="M34.1561 20.8556C34.1561 17.7353 36.2684 14.709 37.4209 15.2791C38.7346 15.9377 36.4364 18.8765 34.1561 20.8556ZM19.7921 21.9924C19.7921 19.4836 22.2673 14.7169 23.7793 15.2209C25.5668 15.8167 22.2986 20.6249 19.7921 21.9924ZM17.2821 39.9348C16.1442 39.9863 15.3826 39.2583 15.3826 38.0431C15.3826 34.7783 19.913 31.6591 23.3346 29.9847C22.7276 34.5431 21.1876 39.7589 17.2821 39.9348ZM38.1836 29.2959C35.5998 29.2959 33.6252 31.1965 33.6252 33.4757C33.6252 35.3764 34.7676 36.8962 36.283 36.8962C36.8194 36.8962 37.3503 36.5905 37.3503 35.9117C37.3503 34.9183 36.0399 34.6797 36.1385 33.2025C36.2046 32.2281 37.1229 31.5762 38.0346 31.5762C39.8569 31.5762 40.7092 33.3425 40.7092 35.1647C40.6353 37.9793 38.5633 39.9337 36.1351 39.9337C32.9409 39.9337 30.889 36.8962 30.889 33.6269C30.889 28.7594 34.0833 26.8599 35.7566 26.4063C35.7722 26.4063 40.1268 27.1802 39.9913 25.2605C39.9286 24.4161 38.673 24.0913 37.7658 24.0565C36.7567 24.0173 35.7375 24.3802 35.7375 24.3802C35.2089 24.1114 34.8415 23.5861 34.6142 22.9813C37.7311 20.6226 39.9353 18.3445 39.9353 15.7596C39.9353 14.3921 39.0214 13.1757 37.273 13.1757C34.1561 13.1757 31.7996 17.1282 31.7996 20.701C31.7996 21.3069 31.7996 21.9173 31.9564 22.4482C29.9785 23.8908 28.5079 24.7901 25.8501 26.3861C25.8501 26.0535 25.9196 25.1945 26.1436 24.0834C27.0541 23.0945 28.3052 21.6127 28.3052 20.4714C28.3052 19.9405 28.0039 19.4825 27.3901 19.4825C25.8725 19.4825 24.7346 21.765 24.43 23.361C23.7457 24.201 22.377 25.265 21.2346 25.265C20.3241 25.265 20.0183 24.4284 19.941 24.1226C22.8306 23.1337 26.4034 19.1812 26.4034 15.6084C26.4034 14.8501 26.0988 13.1757 23.8196 13.1757C20.3991 13.1757 17.514 18.2706 17.514 22.2186C16.2943 22.2186 15.8407 20.9284 15.8407 19.9394C15.8407 18.9493 16.2204 17.9649 16.2204 17.6591C16.2204 17.3545 16.0681 16.9759 15.61 16.9759C14.4721 16.9759 13.7877 18.4957 13.7877 20.2441C13.8661 22.6767 15.461 24.201 17.5879 24.35C17.8925 25.7959 19.1828 27.1645 20.7777 27.1645C21.7677 27.1645 22.9829 26.8599 23.8196 26.1017C23.7457 26.6325 23.6717 27.0906 23.5933 27.5442C20.2468 29.2959 17.8141 30.5111 15.61 32.4868C13.8661 34.085 12.8772 36.2119 12.8772 37.8818C12.8772 40.1655 14.3197 42.2924 17.2833 42.2924C20.7777 42.2924 23.441 39.4812 24.7346 35.6026C25.3405 33.7804 25.5836 31.126 25.7393 28.69C29.2314 26.7109 30.889 25.5708 32.7146 24.2761C32.942 24.6557 33.1716 24.9593 33.4729 25.1866C31.878 26.0233 28.0778 28.3809 28.0778 33.9282C28.0778 37.8807 30.7356 42.2913 35.9839 42.2913C40.3161 42.2913 43.2796 38.7173 43.2796 35.2957C43.2785 32.1821 41.5302 29.2959 38.1836 29.2959ZM51.2529 35.8255C51.2417 35.849 51.1991 35.8804 51.1129 35.8524C51.0457 35.8289 51.0311 35.7975 51.0311 35.7538C51.0345 35.7113 51.9495 33.0053 51.9417 29.9052C51.9338 26.5541 50.5742 24.5012 48.8303 24.5012C47.7629 24.5012 47.0036 25.2639 47.0036 26.4063C47.0036 28.4581 49.5102 28.6116 49.5102 33.0949C49.5102 34.9172 49.1305 36.6655 48.5257 38.565C45.71 48.0649 36.741 52.4754 28.0039 52.4754C23.973 52.4754 21.1103 51.6466 20.2591 51.2647C20.2244 51.2445 20.1919 51.1785 20.2199 51.1113C20.2389 51.0609 20.2983 51.0217 20.333 51.0373C20.678 51.1706 23.1364 51.9445 26.1783 51.9445C29.5215 51.9445 31.4994 50.577 31.4994 48.9026C31.4994 47.8397 30.6628 47.0031 29.5999 47.0031C27.547 47.0031 27.3913 49.5869 22.9841 49.5869C21.0846 49.5869 19.4113 49.2073 17.4367 48.5969C8.00855 45.7095 3.52071 36.8189 3.52407 28.0023C3.52743 23.706 4.73255 20.2844 4.75159 20.253C4.76727 20.2306 4.82103 20.206 4.88711 20.2306C4.95431 20.253 4.96887 20.3079 4.96551 20.3281C4.85687 20.6842 4.05831 23.1359 4.05831 26.1778C4.05831 29.5244 5.42583 31.4989 7.17415 31.4989C8.15975 31.4989 8.99639 30.7407 8.99639 29.6767C8.99639 27.6215 6.48647 27.3941 6.48647 22.9847C6.48647 21.0841 6.86951 19.4108 7.47543 17.4362C10.365 8.0103 19.2601 3.59302 28.0017 3.5247C32.0639 3.49334 35.6177 4.70966 35.7543 4.8183C35.7778 4.83846 35.8013 4.88998 35.7778 4.95158C35.7453 5.0255 35.6983 5.03334 35.6759 5.02886C35.6334 5.0255 33.3217 4.05894 29.8228 4.05894C26.5546 4.05558 24.5017 5.42422 24.5017 7.17478C24.5017 8.16038 25.2644 8.99702 26.4012 8.99702C28.4541 8.99702 28.6065 6.49046 33.017 6.49046C34.9121 6.49046 36.5865 6.86566 38.561 7.47606C48.0654 10.3645 52.3897 19.3335 52.4714 28.0012C52.5162 32.4397 51.2652 35.7975 51.2529 35.8255ZM28.0028 1.85366C13.5604 1.85366 1.85527 13.5554 1.85527 28.0012C1.85527 42.4436 13.5604 54.1453 28.0028 54.1453C42.4418 54.1453 54.147 42.4436 54.147 28.0012C54.147 13.6338 42.4418 1.85366 28.0028 1.85366ZM28.0028 55.4401C12.8761 55.4401 0.560547 43.2029 0.560547 28.0023C0.560547 12.8711 12.8761 0.560059 28.0028 0.560059C43.125 0.560059 55.4406 12.8711 55.4406 28.0023C55.4406 43.2029 43.125 55.4401 28.0028 55.4401Z" fill="#333333"/>
</svg>
