<svg width="133" height="24" viewBox="0 0 133 24" fill="none" xmlns="http://www.w3.org/2000/svg">
<path fill-rule="evenodd" clip-rule="evenodd" d="M78.2781 14.5505C79.1348 14.5505 79.9905 14.5556 80.8462 14.5475C81.021 14.5454 81.1023 14.5751 81.1341 14.7767C81.2031 15.221 81.4766 15.4973 81.9127 15.6161C82.7026 15.831 83.4986 15.8453 84.2874 15.6478C84.9096 15.4922 85.1925 14.9907 85.0217 14.4318C84.8983 14.0265 84.5764 13.8709 84.2021 13.8074C82.3827 13.4993 80.5623 13.1984 78.7419 12.8964C77.0635 12.616 75.8982 11.5463 75.6617 10.013C75.3048 7.69466 76.2253 5.98837 78.5517 5.25038C79.5904 4.92079 80.66 4.79796 81.7379 4.76828C83.4379 4.72119 85.1349 4.77851 86.7856 5.26369C87.7935 5.56052 88.7129 6.01396 89.3773 6.87785C89.8514 7.49302 90.0561 8.20747 90.1466 8.96491C90.1631 9.10002 90.126 9.14711 89.982 9.14711C88.2696 9.14199 86.5573 9.14403 84.8469 9.14403C84.7585 9.14403 84.6649 9.14915 84.6536 9.02939C84.5816 8.24534 83.9923 8.03244 83.3731 7.88812C82.7141 7.73482 82.0271 7.74678 81.3738 7.92292C81.0467 8.0089 80.7546 8.16038 80.6415 8.5258C80.5078 8.95672 80.695 9.32111 81.1362 9.39993C82.2809 9.60464 83.4307 9.77865 84.5754 9.98745C85.7684 10.2055 86.9923 10.2771 88.1442 10.6978C90.2093 11.4512 90.8696 13.0029 90.6433 14.9559C90.4006 17.0388 89.0307 18.0624 87.1784 18.5731C85.3889 19.0675 83.551 19.0901 81.7101 19.0051C80.6425 18.956 79.5832 18.8444 78.5568 18.5209C77.335 18.1361 76.2921 17.5178 75.7491 16.2722C75.554 15.8056 75.4463 15.3075 75.4313 14.8023C75.421 14.6068 75.4776 14.5434 75.6792 14.5464C76.5462 14.5567 77.4121 14.5505 78.2791 14.5505H78.2781ZM112.029 10.6712C111.254 10.6712 110.478 10.6548 109.705 10.6814C109.442 10.6896 109.366 10.5893 109.315 10.3518C109.091 9.30269 108.538 8.51454 107.49 8.33644C105.633 8.01913 104.108 8.8083 103.83 11.2055C103.721 12.1513 103.753 13.0889 104.014 14.008C104.469 15.612 105.674 16.1698 107.074 16.0234C108.279 15.8965 108.978 15.1503 109.296 13.9732C109.363 13.7276 109.455 13.6508 109.702 13.6529C111.253 13.6672 112.803 13.6641 114.354 13.6569C114.586 13.6559 114.681 13.6641 114.618 13.9732C114.466 14.7122 114.292 15.44 113.994 16.1289C113.289 17.7543 112.043 18.6796 110.431 19.1197C108.864 19.5466 107.263 19.5742 105.66 19.4985C104.708 19.4534 103.766 19.3163 102.852 19.001C100.935 18.3387 99.6774 17.005 99.1416 14.9702C98.6483 13.1272 98.6476 11.188 99.1395 9.34465C99.7586 6.99761 101.299 5.6465 103.519 5.1122C105.252 4.69458 107.009 4.71301 108.769 4.88292C109.639 4.96685 110.486 5.15928 111.289 5.52162C113.109 6.34355 114.13 7.83284 114.534 9.8288C114.573 10.0233 114.587 10.2249 114.636 10.4163C114.695 10.6395 114.612 10.6773 114.418 10.6753C113.622 10.6661 112.825 10.6712 112.029 10.6712ZM57.4167 19.0133C57.3231 19.0215 57.2285 19.0358 57.1349 19.0358C53.1794 19.0358 49.2239 19.0327 45.2695 19.043C44.9846 19.044 44.9219 18.9672 44.9219 18.6847C44.9321 14.4574 44.9321 10.228 44.9219 5.99963C44.9208 5.70587 45.0021 5.64855 45.2746 5.64855C49.2301 5.65878 53.1856 5.65878 57.1411 5.64855C57.4311 5.6465 57.4887 5.73453 57.4835 6.00987C57.466 6.86173 57.466 7.71386 57.4835 8.56572C57.4897 8.85232 57.427 8.94546 57.1236 8.94444C54.7345 8.93011 52.3443 8.94239 49.9541 8.92806C49.6559 8.92601 49.5818 9.01404 49.6003 9.30064C49.624 9.67629 49.6209 10.056 49.6003 10.4327C49.587 10.6702 49.6723 10.7111 49.8852 10.7091C52.117 10.7019 54.3488 10.7111 56.5805 10.6978C56.8634 10.6958 56.9302 10.7695 56.923 11.052C56.9025 11.9251 56.9066 12.7992 56.922 13.6723C56.9261 13.9241 56.8634 13.9937 56.6114 13.9927C54.3899 13.9824 52.1684 13.9906 49.948 13.9804C49.6837 13.9783 49.5736 14.0234 49.5983 14.3243C49.6291 14.7 49.6199 15.0797 49.6003 15.4564C49.588 15.6918 49.6466 15.7635 49.8904 15.7624C51.5092 15.7501 53.127 15.7553 54.7447 15.7553L57.2511 15.7563C57.3128 15.7563 57.3797 15.7379 57.4301 15.7942L57.4167 19.0133ZM92.4843 12.3273C92.4843 10.2024 92.4884 8.07748 92.4792 5.95255C92.4792 5.71201 92.5306 5.64548 92.762 5.64752C94.0723 5.66083 95.3835 5.65981 96.6938 5.64957C96.9067 5.64752 96.9664 5.71099 96.9653 5.93617C96.9602 10.2085 96.9602 14.4809 96.9653 18.7533C96.9653 18.9785 96.9057 19.044 96.6928 19.043C95.3815 19.0327 94.0702 19.0297 92.7599 19.043C92.5234 19.046 92.4781 18.9713 92.4792 18.7359C92.4884 16.5997 92.4843 14.4635 92.4843 12.3284V12.3273ZM127.174 13.8217C126.805 15.2271 125.829 15.9958 124.396 16.0449C123.937 16.0679 123.477 16.0149 123.036 15.8883C121.921 15.5516 121.361 14.7184 121.115 13.6211C121.008 13.162 120.96 12.6911 120.973 12.2199C120.97 11.5085 121.035 10.8954 121.225 10.2966C121.607 9.09081 122.421 8.43163 123.652 8.30368C124.71 8.19416 125.708 8.31801 126.486 9.15632C126.985 9.69369 127.19 10.3682 127.293 11.0827C127.424 12.0039 127.411 12.921 127.174 13.8217ZM132.095 9.17781C131.603 7.46129 130.526 6.23403 128.905 5.52879C127.832 5.06102 126.695 4.87882 125.533 4.82253C123.927 4.74269 122.324 4.7345 120.747 5.10299C118.295 5.67414 116.688 7.1491 116.111 9.68448C115.737 11.3135 115.738 13.0057 116.113 14.6345C116.63 16.9068 117.998 18.3787 120.188 19.0563C121.485 19.4575 122.821 19.5374 124.167 19.524C125.348 19.5394 126.522 19.4729 127.675 19.1893C129.86 18.653 131.425 17.3879 132.087 15.1493C132.674 13.1687 132.663 11.1615 132.095 9.17781ZM38.027 10.9885C37.7936 11.4532 37.3575 11.5719 36.8978 11.5945C36.3732 11.6211 35.8487 11.6006 35.3232 11.6006V11.6108C34.7976 11.6108 34.2721 11.6047 33.7476 11.616C33.5594 11.62 33.4853 11.5771 33.4894 11.3693C33.5018 10.6047 33.4997 9.84006 33.4894 9.07545C33.4863 8.87586 33.5439 8.81854 33.7424 8.81956C34.7503 8.8298 35.7582 8.80933 36.7651 8.8298C37.9417 8.85027 38.5608 9.92297 38.027 10.9885ZM42.7888 8.13275C42.4319 7.02115 41.6647 6.3108 40.5581 5.94948C39.833 5.71303 39.0853 5.66288 38.3366 5.66083C35.2553 5.64752 32.174 5.65878 29.0927 5.64752C28.8068 5.64752 28.7688 5.74272 28.7698 5.99554C28.7801 8.11023 28.7749 10.2259 28.7749 12.3406C28.7749 14.4666 28.7791 16.5915 28.7698 18.7175C28.7698 18.9631 28.8202 19.046 29.0835 19.043C30.4472 19.0286 31.811 19.0276 33.1737 19.043C33.4555 19.0471 33.5028 18.9539 33.4997 18.697C33.4853 17.5312 33.5028 16.3663 33.4874 15.2005C33.4833 14.9344 33.5696 14.8852 33.8113 14.8873C35.3366 14.8975 36.8607 14.8924 38.386 14.8924C38.8693 14.8924 39.3507 14.8617 39.8258 14.7716C41.3407 14.485 42.4186 13.66 42.8567 12.141C43.2383 10.8287 43.2143 9.43238 42.7878 8.13377L42.7888 8.13275ZM68.5354 10.9885C68.303 11.4532 67.8659 11.5719 67.4062 11.5945C66.8817 11.6211 66.3571 11.6006 65.8316 11.6006V11.6108C65.3071 11.6108 64.7815 11.6047 64.256 11.616C64.0678 11.62 63.9948 11.5771 63.9978 11.3693C64.0102 10.6047 64.0081 9.84006 63.9978 9.07545C63.9958 8.87586 64.0534 8.81854 64.2519 8.81956C65.2598 8.8298 66.2666 8.80933 67.2735 8.8298C68.4501 8.85027 69.0692 9.92297 68.5354 10.9885ZM73.2972 8.13275C72.9414 7.02115 72.1741 6.3108 71.0675 5.94948C70.3414 5.71303 69.5937 5.66288 68.846 5.66083C65.7648 5.64752 62.6835 5.65878 59.6012 5.64752C59.3163 5.64752 59.2772 5.74272 59.2782 5.99554C59.2885 8.11023 59.2844 10.2259 59.2844 12.3406C59.2844 14.4666 59.2875 16.5915 59.2782 18.7175C59.2782 18.9631 59.3296 19.045 59.5919 19.043C60.9556 19.0277 62.3194 19.0277 63.6831 19.043C63.9639 19.0471 64.0122 18.9539 64.0081 18.697C63.9948 17.5312 64.0112 16.3663 63.9958 15.2005C63.9917 14.9344 64.0781 14.8852 64.3208 14.8873C65.845 14.8975 67.3702 14.8924 68.8944 14.8924C69.3778 14.8924 69.8591 14.8617 70.3342 14.7716C71.8492 14.485 72.928 13.66 73.3661 12.141C73.7478 10.8287 73.7238 9.43238 73.2972 8.13377" fill="#333333"/>
<path fill-rule="evenodd" clip-rule="evenodd" d="M4.94539 7.21192C5.10789 7.0113 5.30741 7.09114 5.50488 7.15358C5.56864 7.21294 5.57687 7.28869 5.56658 7.36341C5.46682 8.09935 5.38969 8.83735 5.39174 9.57841C5.3923 9.61214 5.38572 9.64561 5.37243 9.67665C5.35914 9.70769 5.33944 9.73559 5.31461 9.75856L4.67696 9.76265C4.65331 8.90285 4.75512 8.05329 4.94436 7.21192H4.94539ZM13.6462 3.93138C13.7059 3.76556 13.7583 3.5936 13.9393 3.51172C14.793 3.80548 15.5694 4.24766 16.3387 4.70725C16.2575 4.92527 16.1238 5.11156 15.9891 5.29785C15.7577 5.28147 15.6157 5.10542 15.4388 4.99385C14.9493 4.68678 14.4536 4.38994 13.929 4.14326C13.8231 4.09208 13.6956 4.06138 13.6462 3.93138ZM12.4244 5.29785C13.1752 5.97443 13.8982 6.67864 14.543 7.45758C14.3248 7.6586 14.0831 7.83283 13.8231 7.97653L11.8515 5.71546C11.9955 5.51177 12.2125 5.40942 12.4244 5.29785ZM9.12508 9.76265C8.76917 8.96001 8.48056 8.12946 8.26219 7.27947C8.43909 7.09114 8.68284 7.05838 8.95744 7.09933C9.29477 7.91613 9.64239 8.72885 10.0579 9.52518C9.75516 9.63338 9.44283 9.71288 9.12508 9.76265ZM8.51828 20.4845L9.4871 20.416C9.83677 20.5572 10.0558 20.8479 10.3448 21.0598C10.9804 21.5255 11.653 21.9298 12.3946 22.2318C12.5488 22.2952 12.7031 22.3167 12.8707 22.2891C13.7346 22.1419 14.5851 21.9259 15.4141 21.6432C15.6641 21.5603 15.5808 21.459 15.4512 21.3443C14.9229 20.8665 14.4326 20.3488 13.9846 19.7957C13.9136 19.7107 13.8046 19.638 13.855 19.505L14.5585 19.2634C14.723 19.289 14.7724 19.4272 14.8464 19.5326C15.2187 20.0577 15.6538 20.5378 16.0682 21.0332C16.2307 21.2276 16.3932 21.2942 16.6524 21.1785C17.5023 20.803 18.319 20.3573 19.094 19.8458C19.2627 19.7332 19.2503 19.6053 19.202 19.4466C19.0114 18.8428 18.8019 18.2451 18.5736 17.6544C18.5335 17.5479 18.4841 17.4466 18.5047 17.3309L19.1279 16.9072C19.3984 17.726 19.6144 18.5592 19.7892 19.4507C20.3755 19.0239 20.8794 18.5746 21.3546 18.0914C21.4533 17.9891 21.5654 17.7537 21.6837 17.8427C21.8091 17.9369 21.5963 18.0996 21.5129 18.2132C19.5342 20.9114 16.8242 22.5388 13.3552 23.0312C11.4735 23.3072 9.55292 23.1367 7.75002 22.5337C7.6338 22.4958 7.49599 22.4856 7.36537 22.3126C8.81551 22.545 10.2111 22.6832 11.6428 22.4887C10.4847 21.9749 9.40893 21.3525 8.51828 20.4845Z" fill="#333333"/>
<path fill-rule="evenodd" clip-rule="evenodd" d="M9.15576 20.4072L8.21471 20.4788C7.51947 19.3642 6.89827 18.2024 6.46735 16.9148L7.34566 16.9066C7.6182 17.2116 7.69534 17.6446 7.87737 18.0089C8.22705 18.7029 8.59524 19.3775 9.00869 20.0223C9.08068 20.1369 9.18044 20.2413 9.15576 20.4072ZM17.2364 6.07004L17.618 5.29725C18.4623 6.12839 19.2604 7.01173 19.9279 8.04041C19.7983 8.33725 19.6708 8.63613 19.4569 8.8695C19.3489 8.8695 19.2923 8.78148 19.2347 8.6955C18.6516 7.82239 18.0242 6.99637 17.3156 6.25326C17.2693 6.20413 17.2282 6.15091 17.2364 6.06902V6.07004ZM22.6194 11.625C22.4892 11.9204 22.3167 12.1955 22.1072 12.4418C21.9735 12.4039 21.953 12.2841 21.919 12.1807C21.6543 11.3957 21.3122 10.6387 20.8978 9.92071C20.8515 9.83985 20.8072 9.76001 20.8319 9.66175L21.3184 8.8695C21.8758 9.73135 22.3016 10.6536 22.6194 11.625ZM4.67267 11.5482L5.5263 11.5584C5.6456 11.6342 5.64355 11.7529 5.66206 11.8614C5.82353 12.8164 6.08064 13.7529 6.39433 14.6793C6.43546 14.8042 6.5198 14.9311 6.42312 15.0662C6.10018 15.1542 5.77005 15.1092 5.44197 15.1102C5.03948 13.9588 4.7811 12.7625 4.67267 11.5482ZM21.7226 14.1358L22.4343 13.3343C22.6554 14.0436 22.6431 14.7622 22.5783 15.4807C22.5392 15.8953 22.496 16.3108 22.3469 16.7162C22.3191 16.7919 22.3232 16.9137 22.1823 16.9066C22.0157 16.8974 22.0846 16.7735 22.0877 16.7018C22.1121 15.8839 22.0171 15.0668 21.8059 14.276C21.7935 14.2279 21.7504 14.1839 21.7226 14.1368V14.1358ZM15.306 8.8695C16.0002 9.83166 16.6409 10.8317 17.2354 11.8655C16.9865 12.0784 16.7386 12.2933 16.4476 12.4418C15.8542 11.412 15.2463 10.3936 14.5439 9.44065L15.306 8.8695ZM10.248 14.2279C9.83676 13.1478 9.47371 12.0501 9.15987 10.9381L9.8366 10.6556L10.9545 13.9106C10.7283 14.0488 10.4917 14.1501 10.248 14.2279ZM13.6975 18.6927C13.0804 17.663 12.4468 16.6435 11.9079 15.5647C11.8874 15.5227 11.8709 15.4777 11.8514 15.4347L12.7873 15.1204C13.3302 16.2287 13.9162 17.3155 14.5439 18.3785L13.6975 18.6927ZM17.8895 12.4418C18.3235 13.4377 18.6896 14.4705 19.0311 15.5166C18.8532 15.7069 18.6608 15.8697 18.4551 16.014C18.0915 14.9908 17.6846 13.9834 17.2354 12.9945C17.4431 12.7928 17.655 12.5973 17.8895 12.4418ZM13.0794 2.60015C13.0454 2.69022 13.0331 2.80793 12.9076 2.82943C12.9508 3.03004 12.8356 3.13957 12.6937 3.23578C12.5826 3.60222 12.2895 3.82126 12.0427 4.07511C11.8185 4.30541 11.5901 4.54083 11.2929 4.67901C11.1818 4.83865 11.0181 4.95453 10.8301 5.00656C10.2346 5.46921 9.55069 5.74557 8.86573 6.02194C8.80402 6.04752 8.76288 6.0117 8.71557 5.98202C8.61993 6.20311 8.4276 6.17649 8.24762 6.17649C7.56164 6.47026 6.84479 6.56545 6.10841 6.52451C5.93769 6.61663 5.7793 6.60435 5.63429 6.46719C5.07583 6.55726 4.61611 6.32798 4.23352 5.94926C3.83242 5.55007 3.81185 5.026 3.96406 4.51013C4.24175 3.56537 4.89996 2.91643 5.63532 2.3504C7.00935 1.29203 8.54793 0.629777 10.2572 0.433252C10.9072 0.357508 11.5634 0.373885 12.1887 0.624659C13.0639 0.976766 13.4074 1.74137 13.0794 2.60015ZM13.3272 0.328848C12.8427 0.10586 12.3142 -0.00640481 11.7804 0.000282115C9.09096 0.0156356 6.71212 0.940942 4.63256 2.68203C3.91469 3.28287 3.31304 4.00244 3.02507 4.94617C2.68259 6.06595 3.07649 6.94417 4.12347 7.3884C4.41144 7.5102 4.7097 7.59107 5.01927 7.62382C5.14371 7.63815 5.2733 7.63201 5.26301 7.8183C5.47488 7.72515 5.6888 7.79476 5.90066 7.80704C6.76046 7.75177 7.60792 7.60847 8.4564 7.45596C8.66929 7.35257 8.88321 7.25226 9.12387 7.24101C9.9991 6.85717 10.897 6.52041 11.693 5.96359C11.876 5.81415 12.0632 5.67188 12.2617 5.54598C12.9134 5.06421 13.4767 4.47417 13.9268 3.80182C14.0019 3.61553 14.1418 3.46711 14.2168 3.28082C14.1685 3.03823 14.3269 2.8499 14.3814 2.63392C14.6426 1.59705 14.2713 0.766935 13.3272 0.328848Z" fill="#333333"/>
<path fill-rule="evenodd" clip-rule="evenodd" d="M5.57052 6.07709C5.66925 6.21015 5.77827 6.22141 5.89552 6.13338C6.02305 5.23162 6.25856 4.37898 6.46734 3.511C6.05801 4.28891 5.76799 5.14871 5.57052 6.07709ZM9.15987 2.6338C10.0084 2.85796 10.8507 3.10669 11.6642 3.511C11.7835 3.40455 11.8802 3.2807 11.8442 3.05653C10.9638 2.75151 10.0752 2.55908 9.15987 2.6338ZM9.15987 3.511C9.62679 4.12002 10.1256 4.67582 10.5761 5.29713C10.7405 5.23383 10.8753 5.11198 10.9545 4.95525C10.3992 4.38308 9.82734 3.84673 9.15987 3.511ZM8.42143 3.511L8.26304 3.53352C8.2507 4.42402 8.38646 5.30736 8.52736 6.18968C8.77111 6.18763 9.03131 6.21834 9.15987 5.97268L8.42143 3.511ZM20.0873 7.6411C20.8206 6.33707 21.0726 4.97982 20.5296 3.51816C21.0057 3.8498 21.2978 4.31348 21.486 4.84368C21.8378 5.83859 21.6969 6.82429 21.3811 7.79463C21.2598 8.17028 21.088 8.52751 20.9389 8.89292C20.908 9.25015 20.6273 9.47533 20.4977 9.77933C19.7115 10.8786 18.7616 11.8523 17.6807 12.6668C17.4154 12.8511 17.1706 13.066 16.9011 13.2441C15.5221 14.1748 14.033 14.9325 12.4674 15.5001C12.1774 15.5922 11.8925 15.6997 11.6035 15.7938C10.2254 16.2166 8.82973 16.5328 7.38679 16.585C7.24589 16.5902 7.11013 16.6301 6.97026 16.6424C6.67304 16.6352 6.36758 16.7283 6.08578 16.5543C4.78477 16.4806 3.50433 16.3077 2.33291 15.6679C1.35895 15.1346 0.585545 14.4089 0.286262 13.2687C0.216326 13.0046 0.15976 12.7354 0.199871 12.456C0.228668 12.458 0.263635 12.4549 0.266721 12.4621C0.644168 13.6658 1.5451 14.3117 2.62911 14.7344C3.58867 15.108 4.59348 15.236 5.61886 15.2135C5.85849 15.0507 6.13618 15.1653 6.39021 15.1009C7.90514 15.0323 9.37584 14.7119 10.825 14.2677C11.1345 14.2032 11.4163 14.0548 11.7156 13.9555C13.2503 13.4019 14.7058 12.6514 16.0454 11.7231C16.3231 11.5593 16.5659 11.3423 16.8343 11.1652C17.8699 10.3515 18.8316 9.46305 19.5679 8.34634C19.7592 8.12525 19.8405 7.81818 20.0883 7.64007" fill="#333333"/>
<path fill-rule="evenodd" clip-rule="evenodd" d="M5.20461 12.3488C4.34379 12.2669 3.49942 12.1134 2.73218 11.6682C1.81068 11.1349 1.15554 10.3907 1.08869 9.23616C1.04653 8.48383 1.27793 7.79804 1.61835 7.13375C1.72531 7.21052 1.68417 7.275 1.66978 7.33334C1.33141 8.84208 1.94643 10.0571 3.33795 10.619C3.91697 10.8544 4.51554 10.9844 5.14085 10.9363C5.33112 10.7961 5.54607 10.8534 5.75382 10.8473C6.9273 10.8299 8.05964 10.5607 9.17964 10.227C9.44909 10.1492 9.71135 10.053 9.97567 9.9588C11.1715 9.52197 12.3021 8.92558 13.3367 8.18598C13.5578 8.03244 13.7748 7.87276 13.9867 7.7049C14.7786 7.058 15.5119 6.35174 16.0796 5.47761C16.2473 5.28825 16.3079 5.01701 16.5147 4.85835C16.9034 4.1265 17.0762 3.35883 16.8427 2.53485C16.6062 1.70269 16.0241 1.20421 15.297 0.842895C15.5314 0.801952 15.734 0.889979 15.9325 0.970841C16.9816 1.39767 17.8095 2.06196 18.0687 3.27387C18.2229 3.99651 18.0831 4.70073 17.8352 5.38447C17.791 5.5073 17.7406 5.63013 17.6933 5.75295C17.7046 6.059 17.4608 6.24734 17.3745 6.50835C16.7368 7.46845 15.95 8.27912 15.0748 9.00074C14.8123 9.20842 14.5448 9.40978 14.2726 9.60464C13.1149 10.3895 11.8688 11.0367 10.5598 11.533C10.2801 11.6456 9.98184 11.703 9.7021 11.8186C8.45662 12.1943 7.19058 12.4307 5.88854 12.4328C5.65817 12.4246 5.41956 12.4921 5.20461 12.3488ZM22.092 14.5823C21.3192 15.6317 20.4085 16.5733 19.3841 17.3817C19.2432 17.6427 18.9696 17.7471 18.7619 17.9293C17.5452 18.7891 16.2318 19.4637 14.8599 20.0215C14.613 20.1239 14.3528 20.1924 14.1091 20.3061C12.6883 20.814 11.2115 21.1507 9.71032 21.3091C9.38739 21.346 9.06445 21.4361 8.74357 21.2989C7.88274 21.3173 7.025 21.304 6.17446 21.1444C4.85802 20.8966 3.65163 20.4074 2.62214 19.5128C2.35988 19.2856 2.12436 19.0348 1.9814 18.6939C3.73494 19.9519 5.71473 20.2938 7.79224 20.2559C8.08638 20.0993 8.40726 20.1167 8.72403 20.1105C10.2626 19.957 11.7549 19.5885 13.2174 19.09C13.5156 18.9938 13.8077 18.8771 14.0978 18.7574C15.5602 18.1856 16.9499 17.4446 18.2384 16.5496C18.477 16.4093 18.6806 16.2179 18.9141 16.0685C19.9796 15.2291 20.9545 14.2977 21.7228 13.1615C21.9306 12.8852 22.0653 12.5576 22.3131 12.312C22.9199 11.2598 23.1853 10.1113 23.2151 8.86972C23.3828 8.97003 23.3807 9.12254 23.4064 9.25049C23.681 10.6282 23.4229 11.9322 22.8654 13.1912C22.7862 13.3724 22.7009 13.5505 22.6186 13.7306C22.5359 14.0619 22.3519 14.3595 22.092 14.5823Z" fill="#333333"/>
</svg>
