<svg width="113" height="32" viewBox="0 0 113 32" fill="none" xmlns="http://www.w3.org/2000/svg">
<path d="M108.681 23.226H105.374C104.639 23.226 104.179 22.7666 104.179 22.1234C104.179 21.4802 104.73 21.1127 105.374 21.1127H111.346L112.724 18.0806H105.374C102.341 18.0806 100.596 19.9182 100.596 22.3072C100.596 24.8799 102.25 26.35 104.914 26.35H108.222C108.957 26.35 109.416 26.8094 109.416 27.4526C109.416 28.0958 108.957 28.5552 108.222 28.5552H101.055V31.5873H108.222C111.254 31.5873 113 29.8416 113 27.2688C113 24.6961 111.438 23.226 108.681 23.226ZM95.5422 23.226H92.2344C91.4993 23.226 91.0399 22.7666 91.0399 22.1234C91.0399 21.4802 91.5912 21.1127 92.2344 21.1127H98.2068L99.585 18.0806H92.2344C89.2023 18.0806 87.4565 19.9182 87.4565 22.3072C87.4565 24.8799 89.1104 26.35 91.775 26.35H95.0828C95.8178 26.35 96.2772 26.8094 96.2772 27.4526C96.2772 28.0958 95.8178 28.5552 95.0828 28.5552H87.9159V31.5873H95.0828C98.1149 31.5873 99.8607 29.8416 99.8607 27.2688C99.8607 24.6961 98.2986 23.226 95.5422 23.226Z" fill="#333333"/>
<path d="M74.5932 31.4954H85.8948V28.4633H78.1766V26.2581H85.711V23.226H78.1766V21.1127H85.8948V18.0806H74.5932V31.4954Z" fill="#333333"/>
<path d="M67.5182 23.7773H63.751V21.1127H67.5182C68.6208 21.1127 69.1721 21.7559 69.1721 22.4909C69.0802 23.226 68.5289 23.7773 67.5182 23.7773ZM72.7555 22.3991C72.7555 19.8263 70.9179 18.0806 67.9776 18.0806H60.2595V31.4954H63.8429V26.8094H65.1293L69.1721 31.4954H73.5825L69.1721 26.6257C71.3773 26.1662 72.7555 24.5124 72.7555 22.3991ZM53.4601 24.0529H49.6011V21.1127H53.4601C54.5627 21.1127 55.114 21.7559 55.114 22.5828C55.0222 23.4098 54.4709 24.0529 53.4601 24.0529ZM53.8277 18.0806H46.0176V31.4954H49.6011V27.0851H53.7358C56.7679 27.0851 58.6056 25.1555 58.6056 22.5828C58.6056 19.9182 56.7679 18.0806 53.8277 18.0806Z" fill="#333333"/>
<path d="M45.3742 18.0806H40.78L37.2885 22.1234L33.797 18.0806H29.1109L34.9914 24.6961L29.019 31.4954H33.6132L37.1966 27.2688L40.8719 31.4954H45.5579L39.4937 24.6042L45.3742 18.0806Z" fill="#333333"/>
<path d="M17.1665 31.4954H28.4681V28.4633H20.7499V26.2581H28.2843V23.226H20.7499V21.1127H28.4681V18.0806H17.1665V31.4954Z" fill="#333333"/>
<path d="M107.319 9.09163L101.806 0.914062H97.3035V14.3289H100.887V5.78385L106.492 14.3289H110.81V0.914062H107.319V9.09163Z" fill="#333333"/>
<path d="M86.4615 8.63221L88.2991 4.12996L90.1368 8.63221H86.4615ZM86.0939 0.914062L80.2134 14.3289H84.1644L85.267 11.5725H91.515L92.7095 14.3289H96.7523L90.6881 0.914062H86.0939ZM74.3329 7.71339V7.43774C74.3329 5.41632 75.4355 4.03808 77.7326 4.03808H81.7754V0.914062H77.457C73.0466 0.914062 70.7495 3.76243 70.7495 7.43774V7.71339C70.7495 11.8481 73.3222 14.2371 77.2732 14.2371H78.4677L79.9378 11.2049H77.8245C75.7112 11.2968 74.3329 10.1023 74.3329 7.71339Z" fill="#333333"/>
<path d="M65.3284 0.914062V7.6215V14.3289H67.0741H68.9118V7.6215V0.914062H65.3284Z" fill="#333333"/>
<path d="M58.1616 6.61079H54.3944V3.94619H58.1616C59.2642 3.94619 59.8155 4.58937 59.8155 5.32443C59.8155 6.0595 59.2642 6.61079 58.1616 6.61079ZM63.3989 5.23255C63.3989 2.65983 61.5612 0.914062 58.621 0.914062H50.9028V14.3289H54.4863V9.64292H55.7726L59.8155 14.3289H64.3177L59.9073 9.45916C62.1125 8.99974 63.3989 7.34585 63.3989 5.23255Z" fill="#333333"/>
<path d="M37.2126 14.3289H48.5142V11.2968H40.7961V9.09163H48.3305V6.0595H40.7961V3.94619H48.5142V0.914062H37.2126V14.3289Z" fill="#333333"/>
<path d="M25.819 9.36727L22.7869 0.914062H17.182V14.3289H20.6736V4.68126L24.1651 14.3289H27.381L30.9644 4.68126V14.3289H34.456V0.914062H28.8511L25.819 9.36727Z" fill="#333333"/>
<path d="M6.33991 8.6327L8.17756 4.13045L10.0152 8.6327H6.33991ZM5.8805 0.914551L0 14.3294H3.95096L5.05355 11.5729H11.3016L12.4961 14.3294H16.5389L10.5665 0.914551H5.8805Z" fill="#333333"/>
</svg>
