<svg width="99" height="56" viewBox="0 0 99 56" fill="none" xmlns="http://www.w3.org/2000/svg">
<mask id="mask0" mask-type="alpha" maskUnits="userSpaceOnUse" x="0" y="0" width="99" height="56">
<rect width="99" height="56" fill="#C4C4C4"/>
</mask>
<g mask="url(#mask0)">
<path d="M82.0001 42.2346C78.9979 42.2346 75.9417 42.2346 72.9756 42.2346C72.8926 42.2346 72.741 41.8727 72.6977 41.7974C71.4565 39.572 70.2152 37.3359 68.9811 35.1141C67.6605 37.4792 66.3759 39.8838 65.0589 42.2525C62.1036 42.2597 59.1736 42.2382 56.2437 42.2454C56.5756 41.629 56.9292 41.0269 57.2829 40.4213C59.7474 36.1927 62.1758 31.9068 64.6439 27.6746C62.0206 23.1235 59.3577 18.6082 56.72 14.0679C56.7127 14.0679 56.6947 14.0392 56.7127 14.0428C59.7365 14.0428 62.7567 14.0428 65.7805 14.0428C66.8955 16.0567 67.9816 18.0958 69.0786 20.1241C70.2188 18.1137 71.3194 16.0639 72.4488 14.0428C75.3715 14.0428 78.2907 14.0428 81.2135 14.0428C81.2207 14.0786 81.1954 14.118 81.1774 14.1467C78.6191 18.6118 75.9994 23.0913 73.4447 27.5635C76.2845 32.4587 79.1784 37.3502 82.0001 42.2346V42.2346Z" fill="#333333"/>
<path d="M60.0901 24.9836C60.321 25.9153 60.4545 26.9402 60.4545 28.0189C60.4545 31.3838 59.4731 33.878 58.1091 35.9063C57.8782 36.2503 57.6436 36.58 57.3911 36.8953C56.6513 37.827 55.7565 38.6763 54.757 39.3823C54.0858 39.8553 53.3858 40.2854 52.61 40.6473C51.0656 41.3676 49.2001 41.9302 47.0495 41.9302C43.6865 41.9302 41.204 40.9125 39.1941 39.5149C37.1843 38.1137 35.6182 36.261 34.5538 33.9246C33.8393 32.3585 33.3702 30.5524 33.3161 28.3521C33.2908 27.2627 33.428 26.1877 33.6264 25.2559C34.1316 22.9051 35.1239 21.0632 36.3796 19.4757C37.6353 17.8917 39.2266 16.6518 41.1498 15.7165C41.904 15.351 42.7483 15.0392 43.6685 14.8135C44.5886 14.5877 45.6062 14.4336 46.7067 14.4336C46.7139 14.4336 46.7175 14.4336 46.7248 14.4336C47.8 14.3834 48.9403 14.5554 49.8352 14.7525C50.7661 14.9568 51.6285 15.2686 52.3971 15.6126C54.7786 16.6805 56.5539 18.2788 57.9828 20.2748C58.9246 21.5828 59.6318 23.1524 60.0901 24.9836V24.9836ZM49.265 34.3223C49.3516 33.9783 49.3264 33.5375 49.3264 33.0824C49.3264 29.61 49.3264 26.2092 49.3264 22.726C49.3264 22.2816 49.2759 21.9376 49.146 21.615C49.0269 21.3212 48.8429 21.0524 48.6264 20.8338C48.2042 20.4074 47.5691 20.024 46.7717 20.0849C46.3856 20.1135 46.0644 20.2354 45.783 20.411C45.2598 20.7407 44.8628 21.2459 44.7005 21.9161C44.6175 22.2565 44.6211 22.6901 44.6211 23.1381C44.6211 26.5639 44.6211 30.0364 44.6211 33.4945C44.6211 33.7167 44.6103 33.9317 44.6391 34.1216C44.7149 34.6663 44.9603 35.1035 45.2814 35.4296C45.6964 35.8489 46.3387 36.2001 47.1686 36.1105C48.2403 35.9958 49.0269 35.2899 49.265 34.3223Z" fill="#333333"/>
<path d="M33.6841 21.7333C30.4871 21.7333 27.2937 21.7333 24.0967 21.7333C24.057 22.9159 24.0895 24.2239 24.0787 25.4136C26.6695 25.4351 29.3 25.4172 31.9088 25.4208C31.9088 27.9938 31.9088 30.5632 31.9088 33.1362C29.2819 33.1433 26.6334 33.1254 24.021 33.1433C24.0246 36.2037 24.039 39.2067 24.039 42.2671C24.039 42.2778 24.0354 42.2814 24.0318 42.285C21.3688 42.285 18.7022 42.285 16.0393 42.285C16.0248 42.2886 16.0248 42.2778 16.014 42.2778C15.996 32.8817 15.996 23.4247 16.0104 14.0251C16.0104 14.0143 16.0104 14 16.0176 14C21.726 14 27.4345 14 33.1393 14C33.1501 14 33.1537 14 33.1573 14.0072C33.3377 16.5802 33.5109 19.1567 33.6841 21.7333Z" fill="#333333"/>
</g>
</svg>
