<svg width="140" height="30" viewBox="0 0 140 30" fill="none" xmlns="http://www.w3.org/2000/svg">
<path fill-rule="evenodd" clip-rule="evenodd" d="M90.996 10.6528C91.5048 10.6528 92.0021 10.8037 92.4251 11.0863C92.8481 11.369 93.1778 11.7707 93.3725 12.2407C93.5671 12.7107 93.6181 13.2279 93.5188 13.7269C93.4196 14.2258 93.1746 14.6842 92.8149 15.0439C92.4551 15.4036 91.9968 15.6486 91.4979 15.7479C90.9989 15.8471 90.4817 15.7962 90.0117 15.6015C89.5417 15.4068 89.14 15.0771 88.8573 14.6541C88.5747 14.2311 88.4238 13.7338 88.4238 13.2251C88.4238 12.5429 88.6948 11.8886 89.1772 11.4062C89.6596 10.9238 90.3138 10.6528 90.996 10.6528V10.6528ZM125.667 20.1016C125.798 15.7865 132.73 15.3925 136.75 17.825L135.265 20.7447C133.882 19.7828 132.684 19.3332 131.159 19.4586C129.714 19.5768 129.558 21.1495 131.901 21.0904C135.562 20.9973 137.536 22.9211 137.343 25.3894C137.029 29.3821 130.74 31.0157 125.223 27.5156L127.251 24.5475C128.784 25.4288 130.314 26.2169 131.852 26.0324C133.448 25.8408 134.255 24.5529 131.406 24.2519C127.528 23.84 125.592 22.6022 125.674 20.0963L125.667 20.1016ZM95.424 29.4394V17.1461H99.9021V18.8711C101.64 15.9907 108.391 15.9477 108.393 20.4473V29.4412H103.929L103.879 23.2596C103.859 20.7877 102.96 20.5548 101.747 20.691C100.742 20.8038 99.8412 21.1692 99.8412 23.2596V29.4412L95.424 29.4394ZM88.6674 16.924H93.3247V29.4394H88.6674V16.924ZM65.9903 29.4394V17.1461H70.4684V18.8711C71.8083 16.6338 76.9778 15.5429 78.4627 19.0126C80.5728 15.86 86.7454 16.0033 86.7418 20.2879V29.4412H81.9915V22.7133C81.9915 20.9059 81.6834 20.7339 80.1644 20.8002C78.9213 20.8557 78.6383 21.8857 78.6329 23.0554L78.6042 29.4394H74.1404L74.0903 23.2578C74.0706 20.7859 73.5278 20.5709 72.3134 20.6892C71.0989 20.8074 70.5848 20.9704 70.5848 23.2578V29.4394H65.9903ZM57.9297 16.2308C59.2359 16.2308 60.5128 16.6181 61.5989 17.3438C62.6849 18.0695 63.5314 19.1009 64.0313 20.3077C64.5312 21.5145 64.6619 22.8424 64.4071 24.1235C64.1523 25.4046 63.5233 26.5814 62.5996 27.505C61.676 28.4287 60.4992 29.0577 59.2181 29.3125C57.937 29.5673 56.6091 29.4365 55.4023 28.9367C54.1956 28.4368 53.1641 27.5903 52.4384 26.5042C51.7127 25.4182 51.3254 24.1413 51.3254 22.8351C51.3254 21.0835 52.0212 19.4037 53.2597 18.1651C54.4983 16.9266 56.1781 16.2308 57.9297 16.2308V16.2308ZM57.9297 20.485C58.3945 20.485 58.8489 20.6228 59.2353 20.881C59.6218 21.1393 59.923 21.5063 60.1009 21.9357C60.2788 22.3652 60.3253 22.8377 60.2347 23.2936C60.144 23.7494 59.9201 24.1682 59.5915 24.4969C59.2628 24.8255 58.8441 25.0493 58.3882 25.14C57.9323 25.2307 57.4598 25.1842 57.0303 25.0063C56.6009 24.8284 56.2339 24.5272 55.9757 24.1407C55.7174 23.7542 55.5796 23.2999 55.5796 22.8351C55.5801 22.2119 55.8278 21.6144 56.2684 21.1738C56.7091 20.7332 57.3066 20.4854 57.9297 20.485V20.485ZM33.1765 29.4412V12.0303H38.3532C39.7616 12.015 41.1692 12.1042 42.5644 12.2972C43.548 12.4224 44.5056 12.7023 45.4017 13.1265C46.8482 13.8343 48.0744 14.923 48.9484 16.2755C49.7527 17.624 50.1773 19.1648 50.1773 20.7348C50.1773 22.3049 49.7527 23.8457 48.9484 25.1941C48.1316 26.4934 46.9482 27.5431 45.3982 28.3431C44.4931 28.7717 43.5257 29.054 42.5322 29.1797C40.9879 29.3763 39.4315 29.4631 37.8749 29.4394L33.1765 29.4412ZM38.3335 24.8484V16.6284H40.4472C41.023 16.6213 41.5983 16.6638 42.1668 16.7556C42.5731 16.8164 42.9654 16.9486 43.3257 17.1461C43.9353 17.4994 44.4365 18.013 44.7748 18.631C45.105 19.2832 45.2771 20.0039 45.2771 20.7348C45.2771 21.4658 45.105 22.1865 44.7748 22.8387C44.4359 23.4569 43.9341 23.9705 43.3239 24.3236C42.96 24.5237 42.5633 24.6572 42.1524 24.7177C41.5234 24.8111 40.8877 24.8524 40.2519 24.8413L38.3335 24.8484ZM116.224 16.2379C117.531 16.2369 118.808 16.6235 119.895 17.3488C120.982 18.0742 121.83 19.1057 122.33 20.3128C122.83 21.5199 122.962 22.8484 122.707 24.13C122.452 25.4117 121.823 26.5889 120.899 27.5128C119.974 28.4367 118.797 29.0657 117.515 29.3201C116.234 29.5746 114.905 29.4431 113.698 28.9423C112.491 28.4415 111.46 27.5939 110.735 26.5067C110.01 25.4196 109.624 24.1418 109.625 22.8351C109.625 21.0835 110.321 19.4037 111.559 18.1651C112.798 16.9266 114.478 16.2308 116.229 16.2308L116.224 16.2379ZM116.224 20.4921C116.689 20.4921 117.143 20.63 117.53 20.8882C117.916 21.1464 118.217 21.5135 118.395 21.9429C118.573 22.3723 118.62 22.8448 118.529 23.3007C118.438 23.7566 118.214 24.1753 117.886 24.504C117.557 24.8327 117.138 25.0565 116.682 25.1472C116.227 25.2379 115.754 25.1913 115.325 25.0135C114.895 24.8356 114.528 24.5344 114.27 24.1479C114.012 23.7614 113.874 23.307 113.874 22.8422C113.874 22.2191 114.122 21.6216 114.563 21.181C115.003 20.7404 115.601 20.4926 116.224 20.4921V20.4921ZM124.206 10.6887C124.688 10.6898 125.16 10.8302 125.565 11.093C125.97 11.3557 126.29 11.7297 126.488 12.17C126.775 12.8836 126.824 13.6705 126.629 14.4144C126.35 15.5161 125.422 16.5926 123.464 17.6136L122.927 16.8828C123.272 16.6211 123.585 16.3206 123.862 15.9872C124.147 15.5555 123.776 15.6629 123.462 15.5644C122.893 15.3857 122.406 15.009 122.09 14.5026C121.774 13.9961 121.65 13.3934 121.74 12.8033C121.83 12.2133 122.129 11.6749 122.581 11.2858C123.034 10.8966 123.611 10.6822 124.207 10.6815L124.206 10.6887Z" fill="#333333"/>
<path d="M138.912 16.8057C139.1 16.8062 139.285 16.8543 139.449 16.9454C139.621 17.0373 139.763 17.1774 139.856 17.3484C139.95 17.5134 140 17.7002 140 17.8903C140 18.0803 139.95 18.2671 139.856 18.4321C139.764 18.6016 139.624 18.7409 139.455 18.8334C139.291 18.9263 139.106 18.9752 138.917 18.9752C138.729 18.9752 138.544 18.9263 138.38 18.8334C138.21 18.7415 138.07 18.6021 137.977 18.4321C137.883 18.2685 137.834 18.0833 137.834 17.8947C137.835 17.7062 137.885 17.5211 137.979 17.3574C138.072 17.1863 138.214 17.0462 138.385 16.9543C138.55 16.8632 138.735 16.8152 138.923 16.8146L138.912 16.8057ZM138.912 16.9848C138.756 16.9861 138.603 17.0261 138.466 17.1012C138.324 17.1787 138.206 17.2948 138.128 17.4362C138.048 17.5738 138.007 17.7297 138.007 17.8885C138.007 18.0472 138.048 18.2032 138.128 18.3408C138.206 18.4821 138.323 18.5982 138.464 18.6757C138.601 18.7542 138.756 18.7956 138.914 18.7957C139.072 18.7954 139.228 18.754 139.365 18.6757C139.506 18.5976 139.622 18.4816 139.7 18.3408C139.777 18.2034 139.818 18.0487 139.818 17.8912C139.819 17.7314 139.777 17.5745 139.697 17.4362C139.619 17.294 139.501 17.1776 139.358 17.1012C139.222 17.0261 139.069 16.9861 138.914 16.9848H138.912ZM138.436 18.4894V17.3251H138.837C138.938 17.3203 139.038 17.3306 139.136 17.3556C139.195 17.3771 139.247 17.4165 139.283 17.4684C139.319 17.5211 139.338 17.5837 139.337 17.6475C139.337 17.6891 139.329 17.7302 139.313 17.7687C139.298 17.8071 139.275 17.842 139.245 17.8715C139.181 17.9362 139.095 17.974 139.003 17.9771C139.04 17.9916 139.073 18.0129 139.102 18.0398C139.17 18.1097 139.23 18.1872 139.281 18.2709L139.424 18.4984H139.181L139.079 18.3193C139.03 18.2174 138.963 18.1252 138.882 18.047C138.836 18.0178 138.783 18.0039 138.729 18.0076H138.618V18.502L138.436 18.4894ZM138.615 17.8338H138.844C138.922 17.8412 139 17.8237 139.068 17.7837C139.087 17.7683 139.103 17.7486 139.113 17.7262C139.123 17.7038 139.128 17.6793 139.127 17.6547C139.128 17.6214 139.118 17.5888 139.098 17.5616C139.079 17.5334 139.052 17.512 139.02 17.5007C138.958 17.4835 138.894 17.4768 138.83 17.481H138.615V17.8392V17.8338Z" fill="#333333"/>
<path fill-rule="evenodd" clip-rule="evenodd" d="M9.96045 9.27505L18.9883 0.283011C19.1703 0.101763 19.4166 0 19.6735 0C19.9303 0 20.1767 0.101763 20.3586 0.283011L28.8706 8.82544C29.0518 9.0074 29.1536 9.25377 29.1536 9.5106C29.1536 9.76742 29.0518 10.0138 28.8706 10.1957L19.8481 19.1878L9.96045 9.27505ZM18.0443 7.67905C18.383 7.34036 18.8145 7.1097 19.2843 7.01626C19.7541 6.92281 20.241 6.97076 20.6835 7.15406C21.1261 7.33735 21.5043 7.64776 21.7704 8.04602C22.0365 8.44427 22.1785 8.9125 22.1785 9.39148C22.1785 9.87046 22.0365 10.3387 21.7704 10.7369C21.5043 11.1352 21.1261 11.4456 20.6835 11.6289C20.241 11.8122 19.7541 11.8602 19.2843 11.7667C18.8145 11.6733 18.383 11.4426 18.0443 11.1039C17.5902 10.6497 17.335 10.0338 17.335 9.39148C17.335 8.74919 17.5902 8.13322 18.0443 7.67905V7.67905Z" fill="#333333"/>
<path fill-rule="evenodd" clip-rule="evenodd" d="M11.2286 17.9929C11.5672 17.6542 11.9988 17.4235 12.4685 17.3301C12.9383 17.2366 13.4253 17.2846 13.8678 17.4679C14.3103 17.6512 14.6885 17.9616 14.9546 18.3599C15.2207 18.7581 15.3628 19.2263 15.3628 19.7053C15.3628 20.1843 15.2207 20.6525 14.9546 21.0508C14.6885 21.449 14.3103 21.7594 13.8678 21.9427C13.4253 22.126 12.9383 22.174 12.4685 22.0805C11.9988 21.9871 11.5672 21.7564 11.2286 21.4177C10.7744 20.9636 10.5193 20.3476 10.5193 19.7053C10.5193 19.063 10.7744 18.4471 11.2286 17.9929V17.9929ZM4.13882 18.0144C4.47751 17.6757 4.90903 17.445 5.3788 17.3516C5.84858 17.2581 6.33552 17.3061 6.77804 17.4894C7.22056 17.6727 7.59879 17.9831 7.8649 18.3813C8.13101 18.7796 8.27304 19.2478 8.27304 19.7268C8.27304 20.2058 8.13101 20.674 7.8649 21.0723C7.59879 21.4705 7.22056 21.7809 6.77804 21.9642C6.33552 22.1475 5.84858 22.1955 5.3788 22.102C4.90903 22.0086 4.47751 21.7779 4.13882 21.4392C3.6851 20.9848 3.43026 20.369 3.43026 19.7268C3.43026 19.0847 3.6851 18.4688 4.13882 18.0144ZM0.284069 18.91L9.31551 9.92334L19.1888 19.8325L10.1646 28.8227C9.98291 29.0039 9.73684 29.1056 9.48031 29.1056C9.22377 29.1056 8.97771 29.0039 8.79605 28.8227L0.282279 20.2803C0.101466 20.0981 0 19.8518 0 19.5952C0 19.3385 0.101466 19.0922 0.282279 18.91H0.284069Z" fill="#333333"/>
<path d="M13.3012 29.1556V27.9448H12.8408V27.7334H14.0033V27.9448H13.5394V29.1556H13.3012ZM14.161 29.1556V27.7334H14.5103L14.8685 28.8691L15.2142 27.7334H15.5563V29.1556H15.3396V27.9627L14.9814 29.1556H14.7664L14.3849 27.9448V29.1556H14.161Z" fill="#333333"/>
</svg>
