<svg width="269" height="113" viewBox="0 0 269 113" fill="none" xmlns="http://www.w3.org/2000/svg">
<path d="M66.2166 31.9004C65.7122 32.5117 65.4269 33.1944 65.4269 34.3815V67.0208H65.246C65.246 67.0208 47.3814 35.1712 46.5179 33.6988C45.9065 32.6544 45.2238 31.936 44.3246 31.396C43.4254 30.8941 42.4905 30.5706 40.6946 30.5706H34.8C33.4321 30.5706 32.5711 31.0368 31.9597 31.7577C31.4553 32.3665 31.1675 33.0518 31.1675 34.2363V80.5014C31.1675 81.6885 31.4553 82.3711 31.9597 82.9825C32.5711 83.7009 33.4321 84.167 34.8 84.167H38.1421C39.5075 84.167 40.3711 83.7009 40.9824 82.9825C41.4843 82.3711 41.7721 81.6885 41.7721 80.5014V47.0699H41.953C41.953 47.0699 60.5003 79.9257 61.2569 81.1484C62.2987 82.873 64.059 84.167 66.5757 84.167H72.292C73.6574 84.167 74.521 83.7009 75.1323 82.9825C75.6341 82.3711 75.922 81.6885 75.922 80.5014V38.7655H151.016C151.772 38.7655 152.345 38.5515 152.778 38.1923C153.244 37.7593 153.461 37.1836 153.461 36.3226V33.1587C153.461 32.2952 153.244 31.7195 152.778 31.289C152.345 30.9298 151.772 30.7133 151.016 30.7133H69.0569C67.6915 30.7133 66.8279 31.182 66.2166 31.9004ZM99.0011 44.2652C86.5267 44.2652 79.5163 54.0089 79.5163 64.29C79.5163 75.2538 87.031 84.8879 99.0724 84.8879C105.077 84.8879 110.971 82.6233 114.349 78.6316C115.824 76.9071 117.011 74.4973 117.011 73.0249C117.011 72.5205 116.901 72.09 116.616 71.7665C116.328 71.4073 115.895 71.1908 115.141 71.1908H109.354C108.202 71.1908 107.412 71.6213 106.837 72.4849C105.148 74.966 102.702 76.26 99.108 76.26C93.7153 76.26 90.2305 72.1613 89.9783 67.6678H114.998C116.112 67.6678 116.901 67.4156 117.441 66.8781C118.053 66.3024 118.341 65.4745 118.341 63.9283C118.341 59.2208 116.866 54.3324 113.776 50.5929C110.612 46.8177 105.795 44.2652 99.0011 44.2652ZM137.571 44.2652C127.723 44.2652 121.252 48.9396 121.252 56.4161C121.252 59.0756 122.223 61.2332 123.805 62.9221C125.639 64.9014 128.263 66.2668 132.073 67.2373L140.304 69.321C142.569 69.8967 144.581 70.5794 144.581 72.5562C144.581 75.613 141.346 76.6549 137.897 76.6549C136.205 76.6549 134.445 76.3314 133.006 75.613C132 75.1086 131.139 74.3903 130.527 73.4197C129.987 72.5918 129.809 71.9805 128.981 71.5143C128.477 71.2265 127.865 71.1908 127.04 71.1908H122.582C121.611 71.1908 121.145 71.4786 120.822 71.8735C120.498 72.2683 120.389 72.844 120.389 73.4197C120.389 74.8564 120.893 76.6549 122.08 78.2725C124.811 81.9381 130.527 84.8879 137.823 84.8879C145.014 84.8879 154.972 81.9024 154.972 72.2683C154.972 69.7897 154.251 67.6678 152.921 65.9432C151.232 63.75 148.825 62.2394 144.726 61.1975L136.567 59.1112C133.187 58.2502 131.605 57.6389 131.605 55.5526C131.605 53.5402 133.403 51.9226 137.571 51.9226C140.016 51.9226 142.245 52.4626 143.684 53.9732C144.869 55.2316 144.655 55.8786 145.59 56.3805C146.163 56.6683 146.81 56.6683 147.819 56.6683H151.879C152.526 56.6683 152.995 56.5613 153.351 56.1639C153.642 55.8404 153.82 55.3386 153.82 54.5107C153.82 52.6409 152.597 50.2337 150.442 48.3996C147.566 45.9185 143.037 44.2652 137.571 44.2652ZM159.967 45.6332H157.955C157.201 45.6332 156.625 45.8471 156.194 46.2063C155.726 46.6394 155.509 47.2151 155.509 48.0761V50.5572C155.509 51.4208 155.726 51.9939 156.194 52.427C156.625 52.7861 157.201 53.0027 157.955 53.0027H159.967V70.9386C159.967 75.5391 161.225 78.4151 163.561 80.7179C165.719 82.8373 168.524 84.167 173.412 84.167H176.466C177.223 84.167 177.796 83.9531 178.229 83.5939C178.695 83.1608 178.983 82.5851 178.983 81.7241V78.596C178.983 77.7324 178.695 77.1593 178.229 76.7262C177.796 76.367 177.223 76.1505 176.466 76.1505H176.036C174.095 76.1505 172.765 75.6487 171.866 74.7851C170.788 73.7789 170.248 72.2327 170.248 70.2203V53.0027H176.792C177.546 53.0027 178.122 52.7861 178.552 52.427C179.019 51.9939 179.235 51.4208 179.235 50.5572V48.0761C179.235 47.2151 179.019 46.6394 178.552 46.2063C178.122 45.8471 177.546 45.6332 176.792 45.6332H170.284V33.9128C170.284 32.9779 169.996 32.2952 169.565 31.7577C169.025 31.1107 168.271 30.7133 167.158 30.7133H163.095C161.979 30.7133 161.225 31.1107 160.685 31.7577C160.255 32.2952 159.967 32.9779 159.967 33.9128V45.6332ZM181.968 80.9676C181.968 81.9024 182.254 82.5851 182.687 83.1252C183.224 83.7722 183.981 84.167 185.094 84.167H189.371C190.487 84.167 191.241 83.7722 191.781 83.1252C192.211 82.5851 192.499 81.9024 192.499 80.9676V33.9153C192.499 32.9804 192.211 32.2977 191.781 31.7577C191.241 31.1107 190.487 30.7133 189.371 30.7133H185.094C183.981 30.7133 183.224 31.1107 182.687 31.7577C182.254 32.2977 181.968 32.9804 181.968 33.9153V80.9676ZM90.0496 60.0104C90.5158 55.5882 93.8962 52.2818 99.0367 52.2818C104.07 52.2818 107.555 55.5882 108.024 60.0104H90.0496ZM231.431 38.7655C232.185 38.7655 232.76 38.5515 233.191 38.1923C233.659 37.7593 233.876 37.1836 233.876 36.3226V32.9779C233.876 31.6838 233.624 31.0368 233.191 30.5706C232.796 30.1376 232.149 29.8879 231.431 29.8879C230.855 29.8879 230.282 29.9593 229.311 30.0663L200.623 32.9066C199.797 32.9779 199.403 33.2301 199.115 33.5536C198.791 33.9128 198.646 34.3815 198.646 35.0285V36.8957C198.646 37.6166 198.791 37.9401 199.043 38.228C199.364 38.5872 199.833 38.7655 200.48 38.7655H231.431ZM215.578 44.2652C203.104 44.2652 196.094 54.0089 196.094 64.29C196.094 75.2538 203.608 84.8879 215.65 84.8879C221.654 84.8879 227.548 82.6233 230.926 78.6316C232.401 76.9071 233.588 74.4973 233.588 73.0249C233.588 72.5205 233.479 72.09 233.191 71.7665C232.905 71.4073 232.472 71.1908 231.718 71.1908H225.931C224.779 71.1908 223.99 71.6213 223.414 72.4849C221.725 74.966 219.28 76.26 215.685 76.26C210.293 76.26 206.805 72.1613 206.556 67.6678H231.647C232.76 67.6678 233.552 67.4156 234.09 66.8781C234.701 66.3024 234.989 65.4745 234.989 63.9283C234.989 59.2208 233.514 54.3324 230.424 50.5929C227.261 46.8177 222.372 44.2652 215.578 44.2652ZM206.627 60.0104C207.096 55.5882 210.473 52.2818 215.614 52.2818C220.648 52.2818 224.132 55.5882 224.601 60.0104H206.627Z" fill="#333333"/>
</svg>
