<svg width="192" height="42" viewBox="0 0 192 42" fill="none" xmlns="http://www.w3.org/2000/svg">
<!-- Comment for hash-based cache busting -->
<path fill-rule="evenodd" clip-rule="evenodd" d="M26.9734 36.2389L28.6574 39.7996C26.0716 40.8668 23.3834 41.3799 20.7324 41.3799C12.8302 41.3813 5.26991 36.8837 1.82842 29.3071C-0.436401 24.3214 -0.602699 18.7645 1.36027 13.6557C3.18163 8.92 6.6329 5.09765 11.1444 2.78093L12.8316 6.3472C9.26106 8.22499 6.52669 11.2782 5.07566 15.0522C3.4914 19.1785 3.62463 23.6683 5.45437 27.697C9.14554 35.8198 18.693 39.5583 26.9734 36.2389ZM39.5751 12.5401C41.8395 17.5245 42.0058 23.0828 40.0428 28.1911C38.4586 32.3115 35.6413 35.7405 31.9627 38.0876L30.2448 34.4946C32.9964 32.6099 35.1126 29.9551 36.327 26.7951C37.914 22.6683 37.7785 18.1772 35.9492 14.1508C35.3003 12.7225 34.4558 11.4181 33.4612 10.2575L25.6369 33.4178L19.7885 21.0434L15.1442 31.2088L10.2233 19.762L12.2026 15.5979L15.3986 23.0054L19.7689 12.6092L24.7341 22.9589L29.335 6.78655C26.7735 5.25696 23.7997 4.39153 20.6903 4.39153C19.1452 4.39153 17.6252 4.6057 16.1513 5.01976L14.4329 1.42862C16.4565 0.78841 18.5513 0.460938 20.6903 0.460938C28.8296 0.460938 36.2408 5.20215 39.5751 12.5401Z" fill="#333333"/>
<path fill-rule="evenodd" clip-rule="evenodd" d="M61.5963 22.6713L59.311 15.4766H58.2023L55.903 22.6842L53.6047 15.4766H51.9775L55.297 25.9198H56.4201L58.7319 18.725L61.0177 25.9198H62.1557L65.5227 15.4766H63.9086L61.5963 22.6713Z" fill="#333333"/>
<path fill-rule="evenodd" clip-rule="evenodd" d="M71.7302 25.9175H73.3163V15.4766H71.7302V25.9175Z" fill="#333333"/>
<path fill-rule="evenodd" clip-rule="evenodd" d="M81.8848 15.4766H80.3V25.9193H86.4745V24.5026H81.8848V15.4766Z" fill="#333333"/>
<path fill-rule="evenodd" clip-rule="evenodd" d="M94.281 15.4766H92.6963V25.9193H98.8708V24.5026H94.281V15.4766Z" fill="#333333"/>
<path fill-rule="evenodd" clip-rule="evenodd" d="M113.471 20.6709C113.471 21.2531 113.37 21.7915 113.168 22.2719C112.966 22.7523 112.685 23.1714 112.335 23.5177C111.986 23.8659 111.573 24.14 111.109 24.332C110.182 24.7189 109.027 24.7203 108.092 24.3256C107.623 24.1289 107.207 23.853 106.857 23.5048C106.508 23.1585 106.229 22.7394 106.026 22.259C105.823 21.7786 105.722 21.2498 105.722 20.6838C105.722 20.126 105.82 19.6023 106.012 19.1266C106.206 18.6512 106.477 18.2335 106.818 17.8871C107.157 17.5403 107.567 17.2644 108.036 17.0682C108.505 16.8711 109.022 16.7716 109.576 16.7716C110.139 16.7716 110.664 16.8711 111.138 17.0682C111.609 17.2644 112.025 17.5403 112.371 17.8885C112.715 18.2353 112.989 18.6494 113.181 19.1201C113.373 19.5908 113.471 20.1117 113.471 20.6709ZM113.496 16.8651C113.011 16.3847 112.428 16.0025 111.763 15.727C111.097 15.453 110.362 15.3125 109.576 15.3125C108.818 15.3125 108.098 15.453 107.437 15.7284C106.777 16.0024 106.197 16.3847 105.713 16.8651C105.227 17.3455 104.842 17.9175 104.566 18.5642C104.291 19.2136 104.15 19.928 104.15 20.6838C104.15 21.4497 104.292 22.1701 104.574 22.8232C104.855 23.4758 105.244 24.0529 105.733 24.5365C106.223 25.0202 106.806 25.4038 107.466 25.6746C108.128 25.9441 108.847 26.0809 109.604 26.0809C110.353 26.0809 111.067 25.9409 111.729 25.6668C112.389 25.3928 112.972 25.0073 113.46 24.5236C113.949 24.04 114.339 23.4629 114.621 22.8103C114.901 22.1558 115.045 21.4401 115.045 20.6838C115.045 19.9376 114.906 19.2265 114.635 18.5739C114.363 17.9194 113.98 17.3437 113.496 16.8651Z" fill="#333333"/>
<path fill-rule="evenodd" clip-rule="evenodd" d="M131.948 15.4766H131.364L129.052 22.6713L126.767 15.4766H125.657L123.359 22.6842L121.06 15.4766H119.433L122.753 25.9193H123.876L126.188 18.725L128.473 25.9193H129.611L132.521 16.8951H139.389V25.9193H140.989V16.8951H144.127L144.758 15.4766H132.978H131.948Z" fill="#333333"/>
<path fill-rule="evenodd" clip-rule="evenodd" d="M154.501 17.8978C154.605 18.0959 154.655 18.3073 154.655 18.5426C154.655 18.8425 154.6 19.1036 154.491 19.3229C154.381 19.5389 154.226 19.7227 154.031 19.8677C153.824 20.0193 153.578 20.1367 153.299 20.2178C153.012 20.2998 152.701 20.3417 152.371 20.3417H150.862V16.8952H152.475C152.803 16.8952 153.108 16.9384 153.382 17.0241C153.651 17.1079 153.881 17.2258 154.065 17.3755C154.251 17.5238 154.393 17.6947 154.501 17.8978ZM154.01 21.4604C154.447 21.314 154.838 21.1039 155.169 20.8363C155.504 20.5655 155.775 20.2353 155.978 19.8562C156.181 19.4698 156.284 19.0378 156.284 18.5698C156.284 18.1138 156.188 17.6883 155.995 17.3028C155.805 16.9223 155.537 16.5907 155.2 16.318C154.867 16.0486 154.473 15.839 154.031 15.694C153.591 15.5507 153.108 15.4766 152.594 15.4766H149.276V25.9193H150.862V21.641L155.007 25.9193H157.122L152.981 21.6635C153.338 21.6359 153.682 21.5682 154.01 21.4604Z" fill="#333333"/>
<path fill-rule="evenodd" clip-rule="evenodd" d="M164.613 21.3121H169.04V19.8935H164.613V16.8952H169.337V15.4766H163.029V25.9193H169.62V24.5021H164.613V21.3121Z" fill="#333333"/>
<path fill-rule="evenodd" clip-rule="evenodd" d="M177.786 21.3121H182.212V19.8935H177.786V16.8952H182.51V15.4766H176.201V25.9193H182.792V24.5021H177.786V21.3121Z" fill="#333333"/>
<path fill-rule="evenodd" clip-rule="evenodd" d="M189.285 17.1139C189.22 17.1705 189.138 17.1982 189.034 17.1982H188.743V16.6114H189.077C189.122 16.6114 189.164 16.6197 189.199 16.6358C189.238 16.6533 189.271 16.6745 189.298 16.7017C189.325 16.7261 189.343 16.7542 189.357 16.7906C189.371 16.8209 189.377 16.85 189.377 16.8799C189.377 16.9826 189.347 17.0595 189.285 17.1139ZM190.495 18.0171C190.412 18.2064 190.296 18.3745 190.15 18.5177C190.145 18.5228 190.14 18.5274 190.135 18.5325L189.296 17.5846C189.339 17.5758 189.381 17.5629 189.422 17.5459C189.509 17.51 189.584 17.4607 189.651 17.3958C189.715 17.3336 189.769 17.2576 189.81 17.1687C189.847 17.0821 189.866 16.9881 189.866 16.8896C189.866 16.7887 189.848 16.6929 189.812 16.6036C189.776 16.5137 189.722 16.4354 189.654 16.37C189.586 16.3046 189.503 16.2526 189.408 16.2148C189.312 16.1775 189.207 16.1582 189.096 16.1582H188.264V18.5426H188.743V17.6366L189.509 18.5182L189.53 18.5426H190.124C189.985 18.672 189.823 18.7775 189.64 18.8563C189.26 19.0211 188.782 19.0221 188.397 18.8563C188.203 18.7729 188.032 18.6587 187.888 18.5177C187.742 18.3745 187.626 18.2064 187.542 18.0171C187.458 17.8273 187.416 17.6205 187.416 17.4017C187.416 17.1839 187.458 16.9771 187.542 16.7869C187.626 16.5962 187.742 16.4272 187.888 16.283C188.032 16.1398 188.204 16.0251 188.397 15.9412C188.59 15.8583 188.799 15.8169 189.02 15.8169C189.241 15.8169 189.45 15.8583 189.64 15.9412C189.834 16.0251 190.005 16.1398 190.15 16.283C190.295 16.4272 190.411 16.5962 190.495 16.7869C190.579 16.9762 190.621 17.183 190.621 17.4017C190.621 17.621 190.579 17.8278 190.495 18.0171ZM190.885 16.6183C190.778 16.3751 190.632 16.1609 190.451 15.9822C190.266 15.8012 190.049 15.6561 189.805 15.5511C189.311 15.342 188.726 15.3425 188.231 15.5516C187.988 15.6561 187.771 15.8012 187.589 15.9818C187.405 16.1623 187.262 16.3705 187.153 16.6183C187.047 16.8629 186.994 17.1245 186.994 17.3971C186.994 17.6689 187.047 17.93 187.153 18.1746C187.262 18.4215 187.404 18.6301 187.589 18.812C187.773 18.9944 187.989 19.1386 188.232 19.2413C188.479 19.3459 188.743 19.3984 189.02 19.3984C189.295 19.3984 189.559 19.3459 189.805 19.2413C190.048 19.1391 190.265 18.9944 190.451 18.812C190.632 18.6315 190.778 18.4173 190.885 18.1746C190.99 17.93 191.044 17.6689 191.044 17.3971C191.044 17.1245 190.99 16.8629 190.885 16.6183Z" fill="#333333"/>
</svg>
